<?xml version="1.0" standalone="no"?>
<!DOCTYPE svg PUBLIC "-//W3C//DTD SVG 20010904//EN"
 "http://www.w3.org/TR/2001/REC-SVG-20010904/DTD/svg10.dtd">
<svg version="1.0" xmlns="http://www.w3.org/2000/svg"
 width="700.000000pt" height="700.000000pt" viewBox="0 0 700.000000 700.000000"
 preserveAspectRatio="xMidYMid meet">
<metadata>
Created by potrace 1.14, written by Peter Selinger 2001-2017
</metadata>
<g transform="translate(0.000000,700.000000) scale(0.100000,-0.100000)"
fill="#000000" stroke="none">
<path d="M1580 6994 c-521 -49 -913 -242 -1199 -589 -207 -250 -332 -570 -370
-944 -15 -140 -15 -3763 -1 -3915 72 -754 524 -1305 1215 -1480 256 -65 98
-60 2195 -64 1277 -2 1944 1 2022 8 241 21 451 77 648 171 518 247 840 736
900 1365 14 149 14 3759 0 3908 -83 872 -664 1453 -1536 1536 -99 9 -3777 13
-3874 4z m1050 -1958 c0 -118 -4 -217 -9 -220 -5 -3 -153 -25 -330 -48 l-321
-43 0 -1267 0 -1268 438 0 437 0 130 348 131 347 169 3 c92 1 171 -1 175 -5 5
-6 -34 -1109 -39 -1130 -1 -2 -572 -3 -1271 -3 l-1270 0 0 174 0 174 38 6 c20
3 159 22 307 41 149 20 280 38 293 40 l22 5 0 1268 0 1268 -322 42 c-177 24
-325 45 -330 48 -4 3 -8 102 -8 220 l0 214 880 0 880 0 0 -214z m3450 212 c3
-32 40 -1151 40 -1215 l0 -93 -173 0 -173 0 -130 433 -129 432 -328 3 -327 2
0 -1290 c0 -1222 1 -1290 18 -1290 9 0 136 -9 282 -20 146 -11 275 -20 288
-20 l22 0 0 -220 0 -220 -830 0 -830 0 0 220 0 220 23 0 c12 0 141 9 287 20
146 11 273 20 283 20 16 0 17 68 17 1290 l0 1290 -330 0 -329 0 -11 -37 c-5
-21 -63 -216 -129 -433 l-118 -395 -177 -3 -176 -2 0 655 0 655 1465 0 c806 0
1465 -1 1465 -2z m-2837 -1564 c18 -9 43 -25 56 -36 22 -17 26 -17 45 -3 51
37 98 55 141 55 60 0 103 -19 142 -63 90 -102 59 -269 -75 -405 -56 -58 -202
-162 -227 -162 -25 0 -171 104 -227 162 -102 103 -149 238 -118 332 15 47 65
105 105 122 42 18 120 17 158 -2z"/>
</g>
</svg>
