<?xml version="1.0" standalone="no"?>
<!DOCTYPE svg PUBLIC "-//W3C//DTD SVG 20010904//EN"
 "http://www.w3.org/TR/2001/REC-SVG-20010904/DTD/svg10.dtd">
<svg version="1.0" xmlns="http://www.w3.org/2000/svg"
 width="700.000000pt" height="700.000000pt" viewBox="0 0 700.000000 700.000000"
 preserveAspectRatio="xMidYMid meet">
<metadata>
Created by potrace 1.14, written by Peter Selinger 2001-2017
</metadata>
<g transform="translate(0.000000,700.000000) scale(0.100000,-0.100000)"
fill="#000000" stroke="none">
<path d="M1595 6990 c-774 -53 -1349 -515 -1529 -1228 -64 -256 -61 -141 -61
-2262 0 -2122 -3 -2006 62 -2262 148 -591 583 -1025 1173 -1172 253 -63 139
-59 2140 -64 1944 -3 2068 -1 2286 43 648 131 1109 566 1268 1193 64 256 61
141 61 2262 0 1796 -1 1933 -18 2042 -91 601 -397 1038 -891 1274 -214 101
-430 156 -691 174 -174 11 -3627 11 -3800 0z m852 -1332 c24 -16 49 -44 62
-70 20 -42 21 -59 21 -338 0 -279 -1 -296 -21 -338 -13 -26 -38 -54 -62 -70
l-40 -27 -242 -5 c-241 -5 -242 -5 -282 -32 -22 -14 -48 -43 -59 -65 -18 -37
-19 -82 -22 -1314 -2 -1008 0 -1284 10 -1314 7 -21 26 -48 41 -59 28 -20 38
-21 395 -20 398 1 468 8 577 58 99 45 152 116 227 303 65 163 120 198 330 210
102 6 109 5 162 -21 46 -22 59 -35 80 -78 25 -50 26 -58 26 -232 -1 -565 -74
-793 -288 -898 l-67 -33 -1296 0 -1295 0 -41 27 c-69 46 -78 75 -81 293 -4
211 2 246 49 300 48 54 101 65 310 65 101 0 190 5 206 11 42 15 92 68 103 109
6 22 10 497 10 1290 0 1196 -1 1257 -19 1295 -42 91 -82 104 -325 105 -220 0
-256 10 -304 83 -27 40 -27 41 -30 265 -3 190 -1 232 13 268 19 51 71 99 116
109 63 14 1566 154 1630 152 53 -2 74 -8 106 -29z m3765 9 c64 -25 122 -86
148 -154 39 -104 51 -229 57 -580 7 -373 3 -399 -54 -456 -47 -48 -102 -61
-216 -54 -127 8 -213 36 -258 84 -51 53 -57 67 -74 185 -9 58 -25 123 -38 148
-53 107 -197 160 -433 160 -116 0 -139 -11 -175 -82 -54 -105 -52 -76 -56
-1518 -2 -734 -1 -1350 2 -1368 8 -45 68 -109 113 -122 21 -5 98 -10 172 -10
149 0 194 -12 243 -65 40 -44 49 -97 45 -256 -3 -163 -16 -197 -86 -241 l-37
-23 -685 -3 c-762 -3 -739 -5 -799 63 -41 47 -51 91 -51 230 0 136 9 181 47
225 45 55 75 63 229 69 131 6 143 8 181 33 22 14 48 43 59 65 18 37 19 81 22
1223 3 1203 -3 1481 -33 1609 -19 80 -48 133 -85 154 -55 33 -321 15 -426 -29
-100 -41 -144 -109 -163 -248 -16 -116 -31 -156 -73 -198 -47 -47 -139 -77
-263 -85 -108 -7 -162 6 -210 48 -67 59 -75 142 -55 580 19 417 74 529 304
615 l61 23 1270 -2 c1204 -2 1272 -3 1317 -20z"/>
</g>
</svg>
