<?xml version="1.0" standalone="no"?>
<!DOCTYPE svg PUBLIC "-//W3C//DTD SVG 20010904//EN"
 "http://www.w3.org/TR/2001/REC-SVG-20010904/DTD/svg10.dtd">
<svg version="1.0" xmlns="http://www.w3.org/2000/svg"
 width="700.000000pt" height="700.000000pt" viewBox="0 0 700.000000 700.000000"
 preserveAspectRatio="xMidYMid meet">
<metadata>
Created by potrace 1.14, written by Peter Selinger 2001-2017
</metadata>
<g transform="translate(0.000000,700.000000) scale(0.100000,-0.100000)"
fill="#000000" stroke="none">
<path d="M1195 6993 c-331 -44 -603 -171 -810 -378 -178 -178 -296 -402 -357
-678 l-23 -102 0 -2335 0 -2335 23 -102 c61 -276 179 -500 357 -678 178 -178
402 -296 678 -357 l102 -23 2335 0 2335 0 102 23 c276 61 500 179 678 357 178
178 296 402 357 678 l23 102 0 2335 0 2335 -23 102 c-61 276 -179 500 -357
678 -176 177 -397 293 -673 357 l-97 22 -2310 2 c-1270 1 -2323 -1 -2340 -3z
m2474 -1019 c46 -19 87 -58 114 -109 21 -39 22 -51 22 -365 0 -314 -1 -326
-22 -365 -27 -51 -68 -89 -118 -112 -34 -15 -81 -18 -305 -23 -288 -5 -293 -7
-354 -67 -16 -15 -38 -48 -50 -73 -21 -45 -21 -46 -24 -1470 -2 -898 1 -1449
7 -1489 16 -103 61 -138 200 -151 47 -5 165 -18 261 -29 744 -85 1168 -34
1432 174 104 82 170 179 230 342 21 57 52 124 68 148 40 58 110 92 218 105
157 20 253 -17 305 -119 l27 -55 0 -259 c0 -418 -25 -612 -100 -763 -65 -133
-186 -229 -349 -278 -49 -14 -229 -16 -1861 -16 -1171 0 -1826 4 -1861 10 -75
14 -128 53 -162 119 -27 54 -27 57 -27 246 0 189 0 192 28 246 33 66 86 105
161 119 29 5 153 10 275 10 201 0 225 2 266 21 56 25 86 53 113 104 l22 40 0
1490 0 1490 -22 40 c-27 51 -68 89 -118 112 -34 15 -81 18 -306 23 l-266 5
-48 30 c-36 22 -57 45 -78 85 l-28 54 3 266 3 267 30 49 c23 36 45 56 86 77
l56 28 1019 34 c560 18 1041 31 1068 29 27 -3 65 -12 85 -20z"/>
</g>
</svg>
