<svg xmlns="http://www.w3.org/2000/svg" xml:space="preserve" viewBox="0 0 255.975 237.578">
  <path fill="#ffbdbd" d="M249.184 113.265c0-38.287-31.115-69.323-69.49-69.323-.596 0-1.188.028-1.777.043-12.119-20.31-34.332-33.929-59.75-33.929-38.378 0-69.491 31.038-69.491 69.325 0 .498.028.986.04 1.483 0 20.728-35.155 34.437-35.155 60.261 0 38.284 31.113 69.318 69.491 69.318 2.182 0 4.338-.112 6.471-.309 28.15 0 32.03 12.328 53.617 12.328 35.477 0 64.713-13.629 68.944-47.873 9.769-23.9 37.1-34.709 37.1-61.324z" opacity=".39"/>
  <g opacity=".67">
    <circle cx="188.564" cy="84.273" r="23.178" fill="#f0f0ff"/>
    <path fill="#fff" d="M231.038 87.239v-7.647l-10.097-1.924a31.9032 31.9032 0 0 0-1.551-5.812l7.942-6.42-3.826-6.623-9.703 3.378a33.6087 33.6087 0 0 0-4.245-4.249l3.666-9.54-6.621-3.824-6.71 7.772c-1.856-.687-3.804-1.208-5.81-1.555L192.495 40.7h-7.647l-1.925 10.095c-2.004.344-3.946.867-5.813 1.553l-6.421-7.943-6.618 3.824 3.382 9.706c-1.548 1.287-2.969 2.708-4.245 4.249l-9.544-3.673-3.823 6.625 7.771 6.712c-.686 1.863-1.207 3.8-1.552 5.807l-10.095 1.588v7.649l10.094 1.925c.339 2.006.863 3.946 1.551 5.812l-7.938 6.421 3.825 6.627 9.7-3.385a33.3622 33.3622 0 0 0 4.246 4.25l-3.675 9.534 6.628 3.822 6.71-7.771c1.861.684 3.808 1.209 5.809 1.555l1.595 10.095h7.646l1.929-10.093c2.005-.346 3.942-.864 5.812-1.554l6.42 7.942 6.62-3.822-3.378-9.704a32.961 32.961 0 0 0 4.246-4.248l9.539 3.671 3.827-6.625-7.774-6.711a33.463 33.463 0 0 0 1.558-5.812l10.083-1.582zm-42.608 18.492c-12.354 0-22.377-10.019-22.377-22.38 0-12.358 10.021-22.375 22.377-22.375 12.359 0 22.375 10.017 22.375 22.375 0 12.36-10.016 22.38-22.375 22.38z"/>
    <path fill="#ccccde" d="M193.395 127.277h-10.167l-1.63-10.318a34.9372 34.9372 0 0 1-4.024-1.079l-6.853 7.937-8.814-5.083 3.757-9.746a35.1675 35.1675 0 0 1-2.938-2.943l-9.907 3.457-5.086-8.812 8.112-6.562a33.9568 33.9568 0 0 1-1.074-4.029l-10.306-1.965V77.96l10.316-1.623a34.641 34.641 0 0 1 1.077-4.022l-7.937-6.856 5.084-8.81 9.752 3.753a34.164 34.164 0 0 1 2.942-2.941l-3.454-9.912 8.804-5.086 6.562 8.119c1.319-.438 2.668-.797 4.029-1.074l1.966-10.309h10.171l1.624 10.317c1.373.281 2.721.642 4.025 1.079l6.853-7.937 8.805 5.085-3.747 9.752c1.035.921 2.019 1.906 2.938 2.943l9.911-3.45 5.088 8.808-8.116 6.561c.439 1.317.799 2.666 1.073 4.03l10.308 1.964v10.172l-10.31 1.617c-.279 1.36-.642 2.707-1.081 4.025l7.941 6.855-5.09 8.81-9.748-3.751a34.5736 34.5736 0 0 1-2.941 2.94l3.449 9.911-8.805 5.084-6.562-8.117c-1.31.436-2.657.795-4.028 1.074l-1.969 10.306zm-7.605-3h5.124l1.891-9.895 1.023-.177c1.906-.329 3.772-.828 5.547-1.483l1.01-.373 6.29 7.782 4.436-2.561-3.312-9.514.798-.665a31.4955 31.4955 0 0 0 4.053-4.055l.688-.827 9.347 3.597 2.564-4.44-7.62-6.578.357-.974c.66-1.799 1.161-3.667 1.488-5.551l.184-1.059 9.88-1.55v-5.123l-9.902-1.887-.174-1.029a30.4632 30.4632 0 0 0-1.478-5.54l-.375-1.011 7.783-6.291-2.564-4.438-9.511 3.312-.665-.797a32.2667 32.2667 0 0 0-4.056-4.059l-.823-.688 3.592-9.345-4.438-2.562-6.579 7.621-.976-.361c-1.766-.653-3.632-1.153-5.545-1.484l-1.059-.183-1.557-9.89h-5.124l-1.888 9.897-1.024.176c-1.887.324-3.754.823-5.55 1.483l-1.009.37-6.29-7.781-4.433 2.562 3.315 9.516-.8.665c-1.476 1.228-2.838 2.591-4.049 4.053l-.688.83-9.354-3.6-2.562 4.44 7.618 6.58-.359.975a31.5488 31.5488 0 0 0-1.48 5.543l-.183 1.061-9.891 1.556v5.125l9.899 1.888.174 1.028c.315 1.873.813 3.737 1.479 5.543l.372 1.009-7.777 6.291 2.564 4.441 9.509-3.318.665.799a31.936 31.936 0 0 0 4.056 4.059l.824.688-3.6 9.338 4.441 2.562 6.578-7.619.975.358c1.792.659 3.658 1.158 5.547 1.485l1.059.183 1.565 9.892zm2.64-17.046c-13.166 0-23.877-10.712-23.877-23.88 0-13.165 10.711-23.875 23.877-23.875 13.165 0 23.875 10.71 23.875 23.875 0 13.168-10.71 23.88-23.875 23.88zm0-44.755c-11.512 0-20.877 9.364-20.877 20.875 0 11.513 9.365 20.88 20.877 20.88 11.511 0 20.875-9.367 20.875-20.88 0-11.511-9.364-20.875-20.875-20.875z"/>
    <path fill="#dbdbed" d="M188.506 73.155c5.564 0 10.082 4.52 10.082 10.085 0 5.571-4.518 10.087-10.082 10.087-5.573 0-10.088-4.516-10.088-10.087 0-5.568 4.515-10.085 10.088-10.085z"/>
    <path fill="#ccccde" d="M188.506 94.827c-6.39 0-11.588-5.198-11.588-11.587 0-6.388 5.198-11.585 11.588-11.585 6.387 0 11.582 5.197 11.582 11.585 0 6.389-5.195 11.587-11.582 11.587zm0-20.172c-4.735 0-8.588 3.851-8.588 8.585 0 4.735 3.853 8.587 8.588 8.587 4.732 0 8.582-3.852 8.582-8.587 0-4.734-3.849-8.585-8.582-8.585z"/>
  </g>
  <g opacity=".69">
    <path fill="#f0f0ff" d="M69.094 171.242c10.137-1.271 19.391 5.908 20.667 16.049 1.275 10.138-5.908 19.393-16.044 20.666-10.14 1.273-19.396-5.906-20.669-16.047-1.276-10.137 5.906-19.39 16.046-20.668z"/>
    <path fill="#fff" d="m105.334 187.715-.766-6.062-8.186-.519a25.9046 25.9046 0 0 0-1.807-4.444l5.649-5.877-3.688-4.861-7.354 3.646a26.2087 26.2087 0 0 0-3.786-2.94l1.958-7.922-5.629-2.365-4.539 6.824c-1.543-.356-3.134-.578-4.756-.646l-2.264-7.838-6.062.766-.519 8.186c-1.553.472-3.04 1.074-4.445 1.808l-5.876-5.649-4.861 3.689 3.643 7.354c-1.092 1.168-2.076 2.438-2.94 3.785l-7.921-1.959-2.365 5.627 6.823 4.539c-.355 1.543-.58 3.135-.646 4.756l-7.835 2.267.763 6.058 8.185.521c.474 1.556 1.076 3.038 1.81 4.444l-5.648 5.877 3.688 4.863 7.35-3.646c1.171 1.098 2.438 2.077 3.788 2.941l-1.958 7.92 5.628 2.365 4.539-6.826c1.544.36 3.134.58 4.754.65l2.269 7.838 6.059-.769.519-8.185c1.556-.474 3.038-1.076 4.444-1.809l5.876 5.65 4.864-3.691-3.646-7.35c1.097-1.172 2.077-2.438 2.939-3.785l7.923 1.957 2.369-5.629-6.828-4.537c.36-1.545.58-3.135.652-4.756l7.833-2.266zm-31.896 18.887c-9.788 1.233-18.721-5.699-19.955-15.488-1.229-9.786 5.703-18.721 15.491-19.954 9.787-1.229 18.719 5.702 19.951 15.491 1.233 9.79-5.7 18.721-15.487 19.951z"/>
    <path fill="#ccccde" d="m71.246 224.53-2.332-8.058c-.982-.081-1.958-.215-2.922-.401l-4.661 7.011-7.955-3.343 2.013-8.144a27.822 27.822 0 0 1-2.326-1.807l-7.548 3.745-5.213-6.874 5.806-6.041c-.415-.882-.786-1.796-1.109-2.732l-8.406-.535-1.078-8.561 8.052-2.329c.08-.972.214-1.949.401-2.923l-7.009-4.663 3.343-7.953 8.145 2.015c.562-.807 1.167-1.583 1.806-2.322l-3.741-7.553 6.871-5.215 6.041 5.808c.881-.413 1.794-.784 2.733-1.107l.533-8.406 8.565-1.082 2.327 8.057c.977.08 1.954.214 2.922.399l4.663-7.01 7.955 3.343-2.013 8.146c.807.562 1.583 1.165 2.323 1.807l7.553-3.744 5.212 6.871-5.809 6.042c.417.889.788 1.803 1.108 2.731l8.406.532 1.082 8.566-8.053 2.327c-.083.982-.217 1.96-.402 2.922l7.013 4.66-3.348 7.955-8.146-2.012c-.562.807-1.166 1.583-1.806 2.322l3.745 7.548-6.875 5.218-6.041-5.81c-.882.415-1.796.785-2.732 1.108l-.533 8.405-8.56 1.087zm-6.611-11.835 1.014.236c1.46.341 2.967.547 4.478.612l1.076.047 2.211 7.641 3.556-.451.506-7.984.994-.303c1.464-.446 2.874-1.02 4.188-1.704l.956-.498 5.729 5.508 2.854-2.165-3.558-7.171.711-.76a24.763 24.763 0 0 0 2.771-3.568l.58-.905 7.722 1.907 1.39-3.303-6.661-4.427.236-1.014c.34-1.459.547-2.967.615-4.481l.048-1.076 7.635-2.206-.449-3.559-7.987-.507-.302-.997a24.513 24.513 0 0 0-1.702-4.187l-.496-.955 5.506-5.729-2.163-2.852-7.174 3.557-.759-.71a24.841 24.841 0 0 0-3.569-2.772l-.906-.579 1.908-7.721-3.303-1.388-4.427 6.656-1.011-.233c-1.478-.342-2.985-.547-4.481-.609l-1.08-.045-2.207-7.642-3.558.449-.506 7.985-.995.303c-1.47.446-2.878 1.019-4.188 1.702l-.956.499-5.729-5.508-2.852 2.164 3.553 7.174-.709.759a25.0079 25.0079 0 0 0-2.773 3.57l-.58.904-7.718-1.908-1.388 3.3 6.655 4.428-.233 1.011c-.344 1.492-.549 2.999-.61 4.48l-.044 1.079-7.641 2.211.448 3.555 7.983.508.303.994c.446 1.465 1.02 2.874 1.705 4.188l.499.955-5.507 5.73 2.164 2.853 7.17-3.558.76.712c1.085 1.018 2.286 1.95 3.571 2.772l.905.58-1.908 7.718 3.301 1.388 4.429-6.66zm6.546-4.451c-9.72 0-17.969-7.284-19.187-16.943-1.33-10.593 6.203-20.296 16.792-21.63.809-.102 1.628-.153 2.438-.153 9.724 0 17.973 7.285 19.189 16.945.646 5.133-.744 10.209-3.915 14.294-3.17 4.084-7.743 6.688-12.874 7.333-.809.101-1.631.154-2.443.154zm.043-35.726c-.685 0-1.378.044-2.063.13-8.948 1.128-15.313 9.327-14.19 18.279 1.029 8.161 7.998 14.317 16.21 14.317.687 0 1.382-.044 2.069-.131 4.336-.545 8.2-2.745 10.879-6.196 2.679-3.452 3.854-7.741 3.308-12.079-1.028-8.164-7.998-14.32-16.213-14.32z"/>
    <circle cx="71.252" cy="188.786" r="8.051" fill="#dbdbed"/>
    <path fill="#ccccde" d="M71.252 198.337c-5.266 0-9.551-4.284-9.551-9.551s4.285-9.552 9.551-9.552 9.551 4.285 9.551 9.552-4.285 9.551-9.551 9.551zm0-16.103c-3.612 0-6.551 2.939-6.551 6.552s2.938 6.551 6.551 6.551 6.551-2.938 6.551-6.551-2.938-6.552-6.551-6.552z"/>
  </g>
  <circle cx="126.393" cy="120.637" r="76.905" fill="#8aebca"/>
  <path fill="#7dd1b4" d="M126.183 41.842c-42.558 0-77.058 34.5-77.058 77.058s34.5 77.058 77.058 77.058c42.559 0 77.059-34.5 77.059-77.058s-34.502-77.058-77.059-77.058zm-2.339 147.456c-40.041 0-72.5-32.46-72.5-72.5 0-40.041 32.46-72.5 72.5-72.5 40.042 0 72.5 32.46 72.5 72.5.001 40.04-32.458 72.5-72.5 72.5z"/>
  <circle cx="126.183" cy="90.691" r="9.15" fill="#fff"/>
  <path fill="#6e6e96" d="M126.183 101.341c-5.872 0-10.649-4.777-10.649-10.65s4.777-10.65 10.649-10.65c5.873 0 10.65 4.777 10.65 10.65s-4.777 10.65-10.65 10.65zm0-18.3c-4.218 0-7.649 3.432-7.649 7.65s3.432 7.65 7.649 7.65c4.219 0 7.65-3.432 7.65-7.65s-3.431-7.65-7.65-7.65z"/>
  <path fill="#6e6e96" d="M126.183 199.042c-43.317 0-78.558-35.241-78.558-78.558 0-43.317 35.241-78.559 78.558-78.559 43.317 0 78.559 35.241 78.559 78.559-.001 43.317-35.242 78.558-78.559 78.558zm0-154.116c-41.663 0-75.558 33.896-75.558 75.559s33.895 75.558 75.558 75.558c41.663 0 75.559-33.895 75.559-75.558s-33.896-75.559-75.559-75.559z"/>
  <path fill="#fff" d="M134.32 151.542c0 5.5-3.661 10-8.137 10s-8.137-4.5-8.137-10v-31.606c0-5.5 3.662-10 8.137-10 4.476 0 8.137 4.5 8.137 10v31.606z"/>
  <path fill="#6e6e96" d="M126.183 163.042c-5.313 0-9.637-5.159-9.637-11.5v-31.606c0-6.341 4.323-11.5 9.637-11.5s9.637 5.159 9.637 11.5v31.606c0 6.341-4.324 11.5-9.637 11.5zm0-51.607c-3.66 0-6.637 3.813-6.637 8.5v31.606c0 4.687 2.977 8.5 6.637 8.5 3.659 0 6.637-3.813 6.637-8.5v-31.606c0-4.686-2.978-8.5-6.637-8.5z"/>
  <path fill="#ffbf00" d="M243.696 115.616c.726-2.219 2.993-4.943 5.046-6.057l.009-.004c2.056-1.113 2.056-2.932 0-4.043l-.009-.006c-2.053-1.111-4.438-3.617-5.301-5.566-.862-1.951-2.274-1.951-3.14 0-.862 1.951-3.248 4.455-5.305 5.566l-.011.006c-2.055 1.111-2.055 2.93 0 4.043l.011.004c2.057 1.111 4.32 3.838 5.045 6.057l.516 1.568c.725 2.218 1.898 2.218 2.627 0l.512-1.568z"/>
  <path fill="#ffb0b8" d="M30.514 56.066c.677-2.079 2.803-4.632 4.729-5.673l.008-.004c1.922-1.042 1.922-2.746 0-3.787l-.008-.005c-1.923-1.042-4.157-3.388-4.967-5.215-.808-1.826-2.131-1.826-2.937 0-.811 1.828-3.046 4.173-4.966 5.215l-.011.005c-1.92 1.041-1.92 2.745 0 3.787l.011.004c1.92 1.041 4.05 3.595 4.729 5.673l.479 1.471c.679 2.078 1.784 2.078 2.461 0l.472-1.471z"/>
  <path fill="#7fdcff" d="M16.749 191.288c.614-1.89 2.546-4.207 4.292-5.152l.009-.004c1.744-.944 1.744-2.494 0-3.438l-.009-.006c-1.746-.941-3.773-3.076-4.508-4.732-.733-1.658-1.937-1.658-2.671 0-.73 1.656-2.763 3.791-4.509 4.732l-.007.006c-1.746.942-1.746 2.492 0 3.438l.007.004c1.746.945 3.678 3.269 4.292 5.152l.436 1.334c.614 1.889 1.621 1.889 2.234 0l.434-1.334z"/>
  <path fill="#ffb0b8" d="M203.483 25.566c.466-1.429 1.927-3.184 3.248-3.896l.006-.003c1.32-.718 1.32-1.89 0-2.604l-.006-.003c-1.319-.717-2.854-2.328-3.412-3.584-.555-1.255-1.465-1.255-2.019 0-.557 1.256-2.093 2.867-3.411 3.584l-.007.003c-1.319.715-1.319 1.886 0 2.604l.007.003c1.318.715 2.779 2.47 3.248 3.896l.329 1.009c.466 1.432 1.226 1.432 1.688 0l.329-1.009zM160.99 233.568c.465-1.428 1.926-3.184 3.247-3.896l.007-.002c1.319-.717 1.319-1.891 0-2.604l-.007-.002c-1.319-.717-2.854-2.328-3.411-3.584-.556-1.256-1.466-1.256-2.02 0-.557 1.256-2.091 2.867-3.411 3.584l-.006.002c-1.319.715-1.319 1.889 0 2.604l.007.002c1.32.715 2.781 2.472 3.248 3.896l.329 1.013c.466 1.43 1.227 1.43 1.689 0l.328-1.013z"/>
  <path fill="#ff0" d="M30.492 105.964c.465-1.429 1.926-3.186 3.248-3.898l.006-.003c1.319-.716 1.319-1.888 0-2.603l-.006-.003c-1.32-.719-2.854-2.328-3.412-3.584-.556-1.255-1.466-1.255-2.02 0-.557 1.256-2.091 2.865-3.411 3.584l-.007.003c-1.319.715-1.319 1.886 0 2.603l.007.003c1.32.715 2.781 2.472 3.248 3.898l.329 1.009c.466 1.43 1.227 1.43 1.689 0l.329-1.009z"/>
</svg>
